<svg xmlns="http://www.w3.org/2000/svg" width="1200" height="800" viewBox="0 0 1200 800" role="img" aria-labelledby="title desc">
  <title id="title">지도에서 모임 장소 정하기</title>
  <desc id="desc">동네 지도와 장소 마커를 표현한 이웃톡 공식 일러스트</desc>
  <defs>
    <linearGradient id="bg" x1="0" y1="0" x2="1" y2="1">
      <stop offset="0" stop-color="#f8e9c9"/>
      <stop offset="1" stop-color="#dcead8"/>
    </linearGradient>
    <filter id="shadow"><feDropShadow dx="0" dy="14" stdDeviation="16" flood-opacity="0.16"/></filter>
  </defs>
  <rect width="1200" height="800" fill="url(#bg)"/>
  <rect x="145" y="95" width="910" height="610" rx="54" fill="#fffdf7" filter="url(#shadow)"/>
  <path d="M205 245 C330 185 420 310 540 250 S760 180 980 275" fill="none" stroke="#b7d2ad" stroke-width="74" stroke-linecap="round" opacity="0.8"/>
  <path d="M255 600 C360 520 480 560 590 480 S820 390 950 470" fill="none" stroke="#d8c6a7" stroke-width="45" stroke-linecap="round"/>
  <path d="M270 150 L335 650 M495 135 L545 670 M760 135 L700 665 M945 175 L880 635" stroke="#e4ded0" stroke-width="18"/>
  <path d="M165 365 L1030 330 M175 525 L1015 555" stroke="#e4ded0" stroke-width="18"/>
  <g transform="translate(624 300)">
    <path d="M0 150 C-20 118 -95 45 -95 -30 A95 95 0 1 1 95 -30 C95 45 20 118 0 150 Z" fill="#e96f6b"/>
    <circle cx="0" cy="-30" r="36" fill="#fff8ec"/>
    <path d="M-17 -30 L-3 -15 L25 -48" fill="none" stroke="#4f7656" stroke-width="13" stroke-linecap="round" stroke-linejoin="round"/>
  </g>
  <rect x="74" y="48" width="535" height="142" rx="34" fill="#344b3c"/>
  <text x="112" y="105" font-family="sans-serif" font-size="29" font-weight="700" fill="#f9e8bd">모임 약속을 더 쉽게</text>
  <text x="112" y="155" font-family="sans-serif" font-size="43" font-weight="800" fill="#ffffff">지도에서 장소를 골라요</text>
</svg>
